<svg width="40" height="40" viewBox="0 0 40 40" fill="none" xmlns="http://www.w3.org/2000/svg">
<path d="M36.8099 3.63639C36.7616 3.63639 36.7148 3.6496 36.6667 3.65207V3.63639C36.6667 1.63091 35.1709 0 33.3334 0H3.33336C1.49578 0 0 1.63091 0 3.63639V39.0909C0 39.4585 0.203438 39.7904 0.514297 39.9307C0.616875 39.9778 0.725859 40 0.833281 40C1.04977 40 1.26297 39.9077 1.4225 39.7337L9.51172 30.9091H33.3334C35.1709 30.9091 36.6667 29.2783 36.6667 27.2727V12.1941L39.0658 9.5774C39.0658 9.5774 39.0658 9.5774 39.0658 9.57655C39.6598 8.92848 40 8.03181 40 7.11647C40 5.19715 38.5694 3.63639 36.8099 3.63639ZM35 27.2727C35 28.275 34.2529 29.0908 33.3334 29.0908H9.16664C8.94531 29.0908 8.73367 29.1867 8.57742 29.3572L1.66664 36.8963V3.63639C1.66664 2.63412 2.41375 1.81824 3.33328 1.81824H33.3333C34.253 1.81824 35 2.63412 35 3.63639V4.25735C34.8418 4.37599 34.6905 4.50647 34.5541 4.65553L25.4869 14.5455H9.16664C8.70602 14.5455 8.33328 14.9521 8.33328 15.4546C8.33328 15.9571 8.70602 16.3637 9.16664 16.3637H24.1498L23.3496 20.7307C23.2943 21.029 23.3805 21.3371 23.5775 21.5519C23.7354 21.7241 23.9486 21.8182 24.1667 21.8182C24.2205 21.8182 24.2758 21.812 24.3295 21.8005L28.4945 20.8914C28.6573 20.8559 28.8054 20.7698 28.9209 20.6428L35 14.0121V27.2727ZM27.9216 19.1628L25.2295 19.7505L25.7683 16.8102L33.333 8.55783L35.4882 10.909L27.9216 19.1628ZM37.8873 8.29192L36.6666 9.62359L34.5112 7.27226L35.7323 5.94016C36.0155 5.63207 36.4078 5.45454 36.8098 5.45454C37.6497 5.45454 38.3333 6.20028 38.3333 7.11647C38.3334 7.55326 38.1705 7.98212 37.8873 8.29192Z" fill="white"/>
</svg>
