<svg width="16" height="16" viewBox="0 0 16 16" fill="none" xmlns="http://www.w3.org/2000/svg">
<path d="M15.6338 13.8662L11.4625 9.69497C12.1421 8.67141 12.5 7.48609 12.5 6.25C12.5 2.80375 9.69625 0 6.25 0C2.80375 0 0 2.80375 0 6.25C0 9.69625 2.80375 12.5 6.25 12.5C7.48612 12.5 8.67144 12.142 9.69497 11.4626L10.8479 12.6155L13.8662 15.6338C14.1024 15.8699 14.4162 16 14.75 16C15.0838 16 15.3976 15.8699 15.6337 15.6339C15.8699 15.3978 16 15.084 16 14.75C16 14.416 15.8699 14.1022 15.6338 13.8662ZM9.548 10.804C8.58341 11.5046 7.44297 11.875 6.25 11.875C3.14838 11.875 0.625 9.35163 0.625 6.25C0.625 3.14838 3.14838 0.625 6.25 0.625C9.35163 0.625 11.875 3.14838 11.875 6.25C11.875 7.44297 11.5047 8.58334 10.804 9.54797C10.4535 10.0309 10.0309 10.4535 9.548 10.804Z" fill="black"/>
</svg>
